ModelForces
version=1
nRows=4
nColumns=157
inDegrees=no

This file contains the forces exerted on a model during a simulation.

A force is a generalized force, meaning that it can be either a force (N) or a torque (Nm).

Units are S.I. units (second, meters, Newtons, ...)
Angles are in degrees.

endheader
time	glut_med1_r	glut_med2_r	glut_med3_r	glut_min1_r	glut_min2_r	glut_min3_r	semimem_r	semiten_r	bifemlh_r	bifemsh_r	sar_r	add_long_r	add_brev_r	add_mag1_r	add_mag2_r	add_mag3_r	tfl_r	pect_r	grac_r	glut_max1_r	glut_max2_r	glut_max3_r	iliacus_r	psoas_r	quad_fem_r	gem_r	peri_r	rect_fem_r	vas_med_r	vas_int_r	vas_lat_r	med_gas_r	lat_gas_r	soleus_r	tib_post_r	flex_dig_r	flex_hal_r	tib_ant_r	per_brev_r	per_long_r	per_tert_r	ext_dig_r	ext_hal_r	glut_med1_l	glut_med2_l	glut_med3_l	glut_min1_l	glut_min2_l	glut_min3_l	semimem_l	semiten_l	bifemlh_l	bifemsh_l	sar_l	add_long_l	add_brev_l	add_mag1_l	add_mag2_l	add_mag3_l	tfl_l	pect_l	grac_l	glut_max1_l	glut_max2_l	glut_max3_l	iliacus_l	psoas_l	quad_fem_l	gem_l	peri_l	rect_fem_l	vas_med_l	vas_int_l	vas_lat_l	med_gas_l	lat_gas_l	soleus_l	tib_post_l	flex_dig_l	flex_hal_l	tib_ant_l	per_brev_l	per_long_l	per_tert_l	ext_dig_l	ext_hal_l	ercspn_r	ercspn_l	intobl_r	intobl_l	extobl_r	extobl_l	femur_lat_meniscii_r.femur_lat_r.force.X	femur_lat_meniscii_r.femur_lat_r.force.Y	femur_lat_meniscii_r.femur_lat_r.force.Z	femur_lat_meniscii_r.femur_lat_r.torque.X	femur_lat_meniscii_r.femur_lat_r.torque.Y	femur_lat_meniscii_r.femur_lat_r.torque.Z	femur_lat_meniscii_r.meniscus_lat_r.force.X	femur_lat_meniscii_r.meniscus_lat_r.force.Y	femur_lat_meniscii_r.meniscus_lat_r.force.Z	femur_lat_meniscii_r.meniscus_lat_r.torque.X	femur_lat_meniscii_r.meniscus_lat_r.torque.Y	femur_lat_meniscii_r.meniscus_lat_r.torque.Z	femur_med_meniscii_r.femur_med_r.force.X	femur_med_meniscii_r.femur_med_r.force.Y	femur_med_meniscii_r.femur_med_r.force.Z	femur_med_meniscii_r.femur_med_r.torque.X	femur_med_meniscii_r.femur_med_r.torque.Y	femur_med_meniscii_r.femur_med_r.torque.Z	femur_med_meniscii_r.meniscus_med_r.force.X	femur_med_meniscii_r.meniscus_med_r.force.Y	femur_med_meniscii_r.meniscus_med_r.force.Z	femur_med_meniscii_r.meniscus_med_r.torque.X	femur_med_meniscii_r.meniscus_med_r.torque.Y	femur_med_meniscii_r.meniscus_med_r.torque.Z	femur_med_tibia_r.tibia_upper_r.force.X	femur_med_tibia_r.tibia_upper_r.force.Y	femur_med_tibia_r.tibia_upper_r.force.Z	femur_med_tibia_r.tibia_upper_r.torque.X	femur_med_tibia_r.tibia_upper_r.torque.Y	femur_med_tibia_r.tibia_upper_r.torque.Z	femur_med_tibia_r.femur_med_r.force.X	femur_med_tibia_r.femur_med_r.force.Y	femur_med_tibia_r.femur_med_r.force.Z	femur_med_tibia_r.femur_med_r.torque.X	femur_med_tibia_r.femur_med_r.torque.Y	femur_med_tibia_r.femur_med_r.torque.Z	femur_lat_tibia_r.tibia_upper_r.force.X	femur_lat_tibia_r.tibia_upper_r.force.Y	femur_lat_tibia_r.tibia_upper_r.force.Z	femur_lat_tibia_r.tibia_upper_r.torque.X	femur_lat_tibia_r.tibia_upper_r.torque.Y	femur_lat_tibia_r.tibia_upper_r.torque.Z	femur_lat_tibia_r.femur_lat_r.force.X	femur_lat_tibia_r.femur_lat_r.force.Y	femur_lat_tibia_r.femur_lat_r.force.Z	femur_lat_tibia_r.femur_lat_r.torque.X	femur_lat_tibia_r.femur_lat_r.torque.Y	femur_lat_tibia_r.femur_lat_r.torque.Z	aACL_R	pACL_R	aPCL_R	pPCL_R	aMCL_R	mMCL_R	pMCL_R	aLCL_R	mLCL_R	pLCL_R	ground_prescribedForce_fx	ground_prescribedForce_fy	ground_prescribedForce_fz	ground_prescribedForce_px	ground_prescribedForce_py	ground_prescribedForce_pz
      0.03578780	     29.70751557	     20.92675938	     22.68849700	      9.37132528	     10.58562427	     12.55487901	      4.97669328	     17.20238767	     16.88208695	     24.99682637	      5.80483030	     20.98394280	     14.43524429	     10.74387060	      9.24815388	     15.95482995	     12.71925924	      7.95964986	      6.09098070	     13.59304669	     20.69542006	     15.67238063	     51.22268658	     44.89383395	     13.10237104	      7.52424957	     17.62755115	     74.79880826	     58.88810243	     50.10005035	     52.94458354	      6.08831355	      4.38946799	     24.98994613	     44.00565310	     15.49248053	     15.51907514	     40.22111776	     23.55395255	     38.39149801	     10.59002325	     25.14300471	      6.44395716	     29.70751557	     20.92675938	     22.68849700	      9.37132528	     10.58562427	     12.55487901	     36.49789557	     15.99972370	     32.01408447	     26.11503304	      5.32678959	     20.98394280	     14.43524429	     10.74387060	      9.24815388	     15.95482995	     11.20531649	      7.95964986	      5.57517681	     13.59304669	     20.69542006	     15.67238063	     51.22268658	     44.89383395	     13.10237104	      7.52424957	     17.62755115	     44.33691503	     25.15418621	     29.22872218	     31.45391347	     61.13974898	     28.53461319	    134.40305867	     86.85770494	     14.32859891	     14.37188476	     34.67874467	     18.56102007	     42.37165172	      6.96292365	     21.32781640	      6.63966891	     88.36143500	     88.36143500	     34.52512326	     34.52512326	     50.52869753	     50.52869753	     32.46125043	     18.22263477	     -3.72169963	      1.06878098	      0.81340122	     13.29272366	    -32.46125043	    -18.22263477	      3.72169963	      0.46776902	     -0.90281582	     -0.32849504	    149.15895833	      1.09187481	      8.75130337	     -3.51878698	     -3.11120934	     60.61646852	   -149.15895833	     -1.09187481	     -8.75130337	      0.13467035	      2.14648321	     -2.81654431	   -857.64248005	   -361.27599615	     70.29737236	     -6.26924837	     12.97883285	     -9.88871346	    857.64248005	    361.27599615	    -70.29737236	     35.38138073	    -15.94176913	    349.83546868	      0.00000000	      0.00000000	      0.00000000	      0.00000000	      0.00000000	      0.00000000	      0.00000000	      0.00000000	      0.00000000	      0.00000000	      0.00000000	      0.00000000	      0.00000000	      0.00000000	    760.02097818	    326.95548597	     20.92197939	      0.04584284	      0.00000000	      0.00000000	      0.00000000	      0.00000000	    -55.00000000	     95.26270000	      0.00000000	      0.03000000	     -0.03000000	      0.00000000
      0.03703539	     29.35364810	     20.66445208	     22.40447388	      9.25593297	     10.45732573	     12.40415517	      4.83399677	     16.69268086	     16.78703458	     24.66678375	      5.60164793	     20.72164774	     14.25878195	     10.60915195	      9.13303824	     15.77251876	     12.50276910	      7.86104687	      5.85887140	     13.42265375	     20.43624008	     15.47764937	     50.72893119	     44.38504026	     12.93889932	      7.44847941	     17.47384888	     75.03876501	     58.28560091	     51.67732273	     55.97992767	      6.24093385	      4.45015343	     26.34578278	     42.09662335	     15.12426803	     15.19463069	     39.08549677	     24.22587771	     40.05874404	     10.48862593	     24.75185588	      6.21068868	     29.35364810	     20.66445208	     22.40447388	      9.25593297	     10.45732573	     12.40415517	     36.15976660	     15.80608817	     31.69167598	     25.78873462	      5.26143671	     20.72164774	     14.25878195	     10.60915195	      9.13303824	     15.77251876	     11.11866028	      7.86104687	      5.50593882	     13.42265375	     20.43624008	     15.47764937	     50.72893119	     44.38504026	     12.93889932	      7.44847941	     17.47384888	     43.87812941	     24.84440685	     28.87479325	     31.07447533	     60.68289648	     28.31901034	    133.23233642	     86.44316823	     14.22606729	     14.25502396	     34.30201692	     18.38000947	     42.07827328	      6.88084019	     21.16999059	      6.59060348	     87.27175190	     87.27175190	     34.09811752	     34.09811752	     50.11691197	     50.11691197	     35.47370739	     19.47345489	     -3.83365989	      1.08280936	      0.89037710	     14.52928219	    -35.47370739	    -19.47345489	      3.83365989	      0.50336438	     -0.99238646	     -0.37023044	    149.30401374	      3.85401589	      7.76327253	     -3.05842439	     -3.11757160	     60.64908151	   -149.30401374	     -3.85401589	     -7.76327253	      0.07110795	      2.17609838	     -2.72933379	   -869.96730410	   -366.68762270	     69.06076220	     -6.33386510	     13.16341855	     -9.99404052	    869.96730410	    366.68762270	    -69.06076220	     34.99017641	    -16.19993509	    354.85847738	      0.00000000	      0.00000000	      0.00000000	      0.00000000	      0.00000000	      0.00000000	      0.00000000	      0.00000000	      0.00000000	      0.00000000	      0.00000000	      0.00000000	      0.00000000	      0.00000000	    757.84726249	    324.35337505	     19.06863437	     -1.39519155	      0.00000000	      0.00000000	      0.00000000	      0.00000000	    -55.00000000	     95.26270000	      0.00000000	      0.03000000	     -0.03000000	      0.00000000
      0.03814676	     29.04106681	     20.43453605	     22.15526572	      9.15491501	     10.34498557	     12.27110921	      4.68967339	     16.22079589	     16.68057191	     24.30697090	      5.41057301	     20.49147625	     14.10429512	     10.49106652	      9.03189848	     15.61086874	     12.30088049	      7.77472694	      5.64186774	     13.27315114	     20.20880692	     15.30651901	     50.29545503	     43.93505172	     12.79575711	      7.38152417	     17.33506065	     75.18221890	     57.63345935	     53.00744830	     58.86813265	      6.30861434	      4.46473942	     27.35667364	     40.51019354	     14.82467584	     14.93235439	     38.22958248	     24.21788023	     41.47481707	     10.41326436	     24.40445549	      6.01195105	     29.04106681	     20.43453605	     22.15526572	      9.15491501	     10.34498557	     12.27110921	     35.85567686	     15.63529447	     31.40314772	     25.50300602	      5.20422366	     20.49147625	     14.10429512	     10.49106652	      9.03189848	     15.61086874	     11.04051124	      7.77472694	      5.44532288	     13.27315114	     20.20880692	     15.30651901	     50.29545503	     43.93505172	     12.79575711	      7.38152417	     17.33506065	     43.46827159	     24.57164072	     28.56255975	     30.73949012	     60.26696460	     28.12279404	    132.17499710	     86.06316702	     14.12931309	     14.14600409	     33.96662325	     18.21758665	     41.80987638	      6.80850113	     21.03065708	      6.54769567	     86.31781321	     86.31781321	     33.72253813	     33.72253813	     49.75529289	     49.75529289	     34.71651774	     18.30833632	     -3.61538340	      1.02374410	      0.87086392	     14.21474786	    -34.71651774	    -18.30833632	      3.61538340	      0.47163099	     -0.97306509	     -0.37303966	    140.08253020	      4.79579714	      6.92324862	     -2.70117872	     -2.91256668	     56.88898790	   -140.08253020	     -4.79579714	     -6.92324862	      0.04391624	      2.03909113	     -2.51782721	   -859.72463927	   -362.67421370	     66.79301265	     -6.24607710	     13.01171115	     -9.84499462	    859.72463927	    362.67421370	    -66.79301265	     33.99910825	    -16.03003319	    350.67850733	      0.00000000	      0.00000000	      0.00000000	      0.00000000	      0.00000000	      0.00000000	      0.00000000	      0.00000000	      0.00000000	      0.00000000	      0.00000000	      0.00000000	      0.00000000	      0.00000000	    756.85192939	    324.90362908	     19.47850921	     -0.56436420	      0.00000000	      0.00000000	      0.00000000	      0.00000000	    -55.00000000	     95.26270000	      0.00000000	      0.03000000	     -0.03000000	      0.00000000
      0.03925814	     28.73120613	     20.20813722	     21.90965784	      9.05553952	     10.23445716	     12.13930204	      4.53572653	     15.73975418	     16.56084023	     23.96375188	      5.22156911	     20.26460646	     13.95231421	     10.37478593	      8.93210719	     15.45009000	     12.10147826	      7.68981134	      5.42352171	     13.12581291	     19.98464186	     15.13763543	     49.86805421	     43.48850249	     12.65491836	      7.31513179	     17.19473321	     75.25954588	     56.89082452	     54.20624465	     61.92185480	      6.34514054	      4.45715192	     28.19679092	     39.03292757	     14.55313082	     14.69692384	     37.50339752	     23.98969813	     42.79190397	     10.33078611	     24.05220697	      5.81943411	     28.73120613	     20.20813722	     21.90965784	      9.05553952	     10.23445716	     12.13930204	     35.54934363	     15.46620483	     31.11378634	     25.22186934	      5.14793974	     20.26460646	     13.95231421	     10.37478593	      8.93210719	     15.45009000	     10.96158973	      7.68981134	      5.38569092	     13.12581291	     19.98464186	     15.13763543	     49.86805421	     43.48850249	     12.65491836	      7.31513179	     17.19473321	     43.05787738	     24.30200515	     28.25339623	     30.40758556	     59.84321151	     27.92295935	    131.10573340	     85.67354875	     14.02776699	     14.03271271	     33.63182740	     18.05430158	     41.53519383	      6.73693817	     20.89237970	      6.50546159	     85.37938857	     85.37938857	     33.35161197	     33.35161197	     49.39866029	     49.39866029	     37.65676083	     19.33163547	     -3.38306521	      0.90044230	      0.94628157	     15.42380328	    -37.65676083	    -19.33163547	      3.38306521	      0.51002406	     -1.06811936	     -0.42016971	    139.54122475	      6.83577021	      6.41436641	     -2.45165978	     -2.89993576	     56.64839438	   -139.54122475	     -6.83577021	     -6.41436641	      0.00185465	      2.04217059	     -2.44003271	   -865.47482000	   -367.02893246	     65.77004175	     -6.28703794	     13.09063004	     -9.82964558	    865.47482000	    367.02893246	    -65.77004175	     33.66245643	    -16.14777832	    353.00524536	      0.00000000	      0.00000000	      0.00000000	      0.00000000	      0.00000000	      0.00000000	      0.00000000	      0.00000000	      0.00000000	      0.00000000	      0.00000000	      0.00000000	      0.00000000	      0.00000000	    755.11062260	    323.28883221	     18.12108871	     -1.57827834	      0.00000000	      0.00000000	      0.00000000	      0.00000000	    -55.00000000	     95.26270000	      0.00000000	      0.03000000	     -0.03000000	      0.00000000
